<?xml version="1.0" encoding="UTF-8" standalone="no"?>
<!-- Created with Inkscape (http://www.inkscape.org/) -->

<svg
   xmlns:dc="http://purl.org/dc/elements/1.1/"
   xmlns:cc="http://creativecommons.org/ns#"
   xmlns:rdf="http://www.w3.org/1999/02/22-rdf-syntax-ns#"
   xmlns:svg="http://www.w3.org/2000/svg"
   xmlns="http://www.w3.org/2000/svg"
   xmlns:sodipodi="http://sodipodi.sourceforge.net/DTD/sodipodi-0.dtd"
   xmlns:inkscape="http://www.inkscape.org/namespaces/inkscape"
   width="300"
   height="150"
   viewBox="0 0 79.374996 39.6875"
   version="1.1"
   id="svg3788"
   inkscape:version="0.92.1 r15371"
   sodipodi:docname="signhash-logotype-inverse.svg">
  <defs
     id="defs3782" />
  <sodipodi:namedview
     id="base"
     pagecolor="#ffffff"
     bordercolor="#666666"
     borderopacity="1.0"
     inkscape:pageopacity="0.0"
     inkscape:pageshadow="2"
     inkscape:zoom="0.98994949"
     inkscape:cx="71.573788"
     inkscape:cy="243.32611"
     inkscape:document-units="mm"
     inkscape:current-layer="g5196"
     showgrid="false"
     units="px"
     inkscape:window-width="1920"
     inkscape:window-height="1127"
     inkscape:window-x="1920"
     inkscape:window-y="54"
     inkscape:window-maximized="0"
     inkscape:measure-start="3.57143,64.6429"
     inkscape:measure-end="317.857,64.6429"
     showguides="true"
     inkscape:guide-bbox="true" />
  <metadata
     id="metadata3785">
    <rdf:RDF>
      <cc:Work
         rdf:about="">
        <dc:format>image/svg+xml</dc:format>
        <dc:type
           rdf:resource="http://purl.org/dc/dcmitype/StillImage" />
        <dc:title />
      </cc:Work>
    </rdf:RDF>
  </metadata>
  <g
     inkscape:label="Layer 1"
     inkscape:groupmode="layer"
     id="layer1"
     transform="translate(0,-257.31251)">
    <g
       id="g3776"
       transform="translate(-44.979167,3.5907738)">
      <g
         id="g5186"
         transform="translate(-35.82526,-2.2146388)">
        <g
           id="g5154"
           transform="translate(0.04728432,0.57257998)">
          <g
             transform="translate(-0.04728427,-0.02935882)"
             id="g5196">
            <g
               transform="translate(-3.604838)"
               id="g5187"
               style="fill:#ececec">
              <g
                 id="g5175"
                 transform="matrix(1.0014545,0,0,1.0014545,-16.730644,-0.31062255)"
                 style="fill:#ececec">
                <path
                   inkscape:connector-curvature="0"
                   id="rect5152"
                   d="m 121.04037,274.01241 c -0.26886,0 -0.49454,0.22569 -0.49454,0.49455 v 1.47381 c 0,0.26886 0.22568,0.49609 0.49454,0.49609 h 1.07591 c 0.28302,0 0.49454,-0.22723 0.49454,-0.49609 v -1.47381 c 0,-0.26886 -0.21152,-0.49455 -0.49454,-0.49455 z m 6.6089,0 c -0.28301,0 -0.49534,0.22569 -0.49557,0.49455 v 3.72225 h -6.11333 c -0.26886,0 -0.49454,0.2262 -0.49454,0.49506 v 5.29218 c 0,0.26888 0.22568,0.49558 0.49454,0.49558 h 1.07591 c 0.28302,0 0.49477,-0.2267 0.49454,-0.49558 v -3.73568 h 4.54288 v 3.73568 c 1e-5,0.26888 0.21256,0.49558 0.49557,0.49558 h 1.07487 c 0.26886,0 0.49506,-0.2267 0.49506,-0.49558 v -9.50949 c 0,-0.26886 -0.2262,-0.49455 -0.49506,-0.49455 z"
                   style="fill:#ececec;fill-opacity:1;stroke:none;stroke-width:0.26458332" />
              </g>
              <path
                 style="fill:#ececec;fill-opacity:1;stroke:none;stroke-width:0.36140886"
                 d="m 118.51001,274.10219 c -0.20084,0 -0.38719,0.11479 -0.45889,0.30127 l -4.04574,9.53999 c -0.0717,0.14345 -0.057,0.32982 0.0434,0.45889 0.0861,0.14341 0.2439,0.22944 0.416,0.22944 h 1.19062 c 0.20083,0 0.38719,-0.11477 0.45889,-0.30127 l 1.03301,-2.46704 h 4.0597 l 1.04697,2.46704 c 0.0717,0.18653 0.25857,0.30127 0.4594,0.30127 h 1.19063 c 0.28692,0 0.50177,-0.22922 0.50177,-0.50178 0,-0.0861 -0.0283,-0.17221 -0.0713,-0.24391 l -4.01681,-9.48263 c -0.0717,-0.18653 -0.25805,-0.30127 -0.45888,-0.30127 z m 10.81639,0 c -1.31979,0 -2.32363,0.28701 -3.01222,0.84646 -0.71728,0.58816 -1.0759,1.36301 -1.0759,2.29547 0,0.67423 0.21494,1.23349 0.63097,1.64951 0.35865,0.37296 0.83207,0.65982 1.37718,0.88935 0.5021,0.20084 1.06135,0.37322 1.64951,0.50229 0.54513,0.12911 1.06189,0.25811 1.53531,0.40153 0.43035,0.12911 0.78887,0.28686 1.06143,0.47336 0.18647,0.12911 0.27285,0.27277 0.27285,0.50229 0,0.31561 -2.3e-4,1.17616 -2.18074,1.17616 -0.76032,0 -1.37729,-0.12924 -1.80765,-0.37311 -0.45903,-0.27256 -0.67419,-0.61658 -0.7028,-1.10432 -0.0143,-0.25822 -0.22972,-0.45889 -0.50229,-0.45889 h -1.11879 c -0.14346,0 -0.27274,0.0572 -0.37311,0.15761 -0.10048,0.10043 -0.14267,0.24364 -0.12867,0.38706 0.10042,1.04721 0.51637,1.87937 1.24798,2.46755 0.78901,0.63119 1.92197,0.94671 3.37086,0.94671 1.27676,0 2.30967,-0.27214 3.05562,-0.78858 0.80333,-0.57381 1.21957,-1.39153 1.21957,-2.45308 0,-0.91811 -0.44463,-1.67878 -1.24799,-2.19521 -0.34428,-0.22955 -0.74631,-0.41573 -1.17667,-0.55914 -0.40167,-0.12912 -0.81751,-0.24432 -1.23352,-0.34469 -0.41603,-0.10041 -0.81778,-0.2009 -1.20509,-0.30127 -0.373,-0.0861 -0.7027,-0.18616 -0.98961,-0.31523 -0.24386,-0.0861 -0.43069,-0.2156 -0.57412,-0.34468 -0.12894,-0.12915 -0.12868,-0.21479 -0.12868,-0.24339 0,-0.1578 0.0283,-0.31599 0.0713,-0.45941 0.0287,-0.10041 0.10076,-0.2009 0.21549,-0.30127 0.12911,-0.11476 0.32999,-0.21517 0.60255,-0.30127 0.27256,-0.10041 0.63108,-0.14315 1.06143,-0.14315 0.43038,0 0.80347,0.0431 1.09037,0.12919 0.94681,0.25821 1.11869,0.77424 1.16169,1.14722 0.0287,0.24387 0.24396,0.43047 0.48783,0.43047 h 1.11879 c 0.1291,0 0.25826,-0.0571 0.35863,-0.14315 0.0861,-0.1004 0.14319,-0.24402 0.1292,-0.3731 -0.043,-0.91812 -0.43033,-1.67876 -1.13327,-2.25258 -0.76031,-0.63117 -1.80767,-0.94671 -3.12746,-0.94671 z m 6.68538,0 c -0.27256,0 -0.50229,0.22973 -0.50229,0.50229 V 284.13 c 0,0.27256 0.22973,0.50178 0.50229,0.50178 h 1.07591 c 0.27257,0 0.50178,-0.22922 0.50178,-0.50178 v -3.74447 h 4.54752 V 284.13 c 0,0.27256 0.21527,0.50178 0.48783,0.50178 h 1.09037 c 0.27256,0 0.48782,-0.22922 0.48782,-0.50178 v -9.52552 c 0,-0.27256 -0.21526,-0.50229 -0.48782,-0.50229 h -1.09037 c -0.27256,0 -0.48783,0.22973 -0.48783,0.50229 v 3.73001 h -4.54752 v -3.73001 c 0,-0.27256 -0.22921,-0.50229 -0.50178,-0.50229 z m -16.82739,2.91248 1.19062,2.85461 h -2.38125 z"
                 id="rect3756"
                 inkscape:connector-curvature="0"
                 sodipodi:nodetypes="scccssccccsssccssscscccccssccsscccscsccccccscccsccsscccsssssssccssssssssccssscccc" />
            </g>
            <path
               sodipodi:nodetypes="csccscsscsccccccccscccssccccscccccccccccsscccccsscccccsscsccccssccccsssssssssccsccscscsccsccsccscscsccsssssccsssssccsssssssccsss"
               d="m 113.85755,269.05921 c 0.52932,0.33431 0.81721,0.8265 0.81721,1.42085 0,0.69647 -0.26931,1.2351 -0.79865,1.60658 -0.37145,0.2693 -0.86366,0.42717 -1.45799,0.49217 h -0.0371 c -0.0744,0 -0.15787,-0.0278 -0.21359,-0.0836 -0.0743,-0.065 -0.11144,-0.14859 -0.11144,-0.24148 v -0.66862 c 0,-0.16714 0.13001,-0.30646 0.28789,-0.32502 0.96581,-0.11141 0.96581,-0.5572 0.96581,-0.75222 0,-0.13929 -0.0465,-0.23216 -0.16717,-0.31574 -0.18572,-0.13001 -0.41789,-0.23217 -0.69649,-0.31574 -0.0465,-0.009 -0.0836,-0.0279 -0.12072,-0.0371 l -0.0279,-0.009 c -0.26931,-0.0743 -0.55719,-0.14859 -0.85436,-0.2136 -0.11144,-0.0186 -0.23216,-0.0557 -0.37146,-0.0928 -0.25074,-0.065 -0.4922,-0.14859 -0.70578,-0.23216 -0.35289,-0.14859 -0.65935,-0.34361 -0.9008,-0.58505 -0.26932,-0.26932 -0.40861,-0.63148 -0.40861,-1.07724 0,-0.61292 0.24145,-1.11438 0.70578,-1.49515 0.33431,-0.27859 0.78935,-0.44576 1.35584,-0.52004 0.0929,-0.009 0.18573,0.0185 0.26001,0.0836 0.065,0.065 0.10215,0.1486 0.10215,0.24146 v 0.66863 c 0,0.15788 -0.11143,0.29717 -0.2693,0.32503 -0.0929,0.009 -0.16716,0.0279 -0.23217,0.0465 -0.17645,0.065 -0.30645,0.13001 -0.39003,0.20432 -0.0743,0.065 -0.12072,0.13 -0.14858,0.19502 -0.0279,0.0928 -0.0465,0.19501 -0.0465,0.29717 0,0.0278 0,0.0743 0.0836,0.15786 0.0929,0.0928 0.22287,0.16716 0.38075,0.23215 0.11144,0.0465 0.25074,0.0929 0.39003,0.13932 0.0836,0.0185 0.16717,0.0464 0.25074,0.065 0.26003,0.065 0.52006,0.13002 0.78937,0.19501 0.0371,0.009 0.0743,0.0185 0.12072,0.0279 l 0.0557,0.0186 c 0.24146,0.065 0.44575,0.12073 0.63149,0.18574 0.2786,0.0928 0.53863,0.21357 0.7615,0.36217 z m -1.55087,-2.09877 c -0.14858,-0.0371 -0.25074,-0.16716 -0.25074,-0.32504 v -0.67791 c 0,-0.0928 0.0465,-0.18573 0.12073,-0.25074 0.065,-0.0557 0.16715,-0.0836 0.26002,-0.065 0.53863,0.0836 0.98438,0.26932 1.32798,0.5572 0.46434,0.38076 0.71507,0.87295 0.74293,1.46726 0.009,0.0929 -0.0279,0.17646 -0.0836,0.24148 -0.065,0.065 -0.14859,0.10213 -0.24145,0.10213 h -0.72436 c -0.15787,0 -0.29717,-0.12074 -0.31575,-0.28789 -0.0371,-0.23218 -0.13929,-0.57576 -0.76149,-0.75221 -0.0185,0 -0.0279,0 -0.0371,-0.009 z m -1.08652,4.26253 c 0.15786,0.0279 0.26001,0.16717 0.26001,0.31575 v 0.68722 c 0,0.0928 -0.0371,0.18571 -0.11142,0.25073 -0.0557,0.0464 -0.13001,0.0742 -0.2136,0.0742 h -0.0465 c -0.57577,-0.0836 -1.05867,-0.2786 -1.42085,-0.56648 -0.47361,-0.38074 -0.7522,-0.91936 -0.81722,-1.60657 -0.009,-0.0928 0.0185,-0.18574 0.0836,-0.25073 0.065,-0.0743 0.14858,-0.11142 0.24144,-0.11142 h 0.73365 c 0.17645,0 0.31574,0.1393 0.32503,0.30646 0.0186,0.31575 0.16715,0.5479 0.45504,0.71507 0.14858,0.0836 0.31574,0.13929 0.51076,0.18573 z m 5.55336,-5.60909 c 0.17645,0 0.32503,0.1486 0.32503,0.32504 v 6.16628 c 0,0.17645 -0.14858,0.32502 -0.32503,0.32502 h -0.69649 c -0.17644,0 -0.32503,-0.14857 -0.32503,-0.32502 v -6.16628 c 0,-0.17644 0.14859,-0.32504 0.32503,-0.32504 z m 8.33935,3.2503 v 0.0371 c 0.009,0.065 0.009,0.13001 0.009,0.19502 0,0.14858 -0.009,0.29717 -0.0279,0.47361 -0.0929,0.78008 -0.4086,1.44872 -0.92866,1.98734 -0.65005,0.67791 -1.49513,1.02152 -2.49808,1.02152 -1.00295,0 -1.84803,-0.34361 -2.49809,-1.02152 -0.63147,-0.65936 -0.9565,-1.48586 -0.9565,-2.46095 0,-0.97508 0.32503,-1.80159 0.95651,-2.46095 0.65006,-0.67791 1.49515,-1.02152 2.49809,-1.02152 1.00295,0 1.84802,0.34361 2.49808,1.02152 0.25073,0.26004 0.45505,0.55721 0.61292,0.88223 0.0279,0.0464 0.0465,0.11141 0.0465,0.17645 0,0.17644 -0.1393,0.31574 -0.32503,0.31574 v 0 h -0.78007 c -0.11143,0 -0.21359,-0.0556 -0.2693,-0.14858 -0.0744,-0.11141 -0.14858,-0.21359 -0.24145,-0.30646 -0.39004,-0.40861 -0.89151,-0.61291 -1.54157,-0.61291 -0.65006,0 -1.15154,0.2043 -1.54157,0.61291 -0.38074,0.4086 -0.56648,0.91008 -0.56648,1.54157 0,0.63149 0.18574,1.14225 0.56648,1.54158 0.39003,0.4086 0.89151,0.6129 1.54157,0.6129 0.65006,0 1.15153,-0.2043 1.54157,-0.6129 0.21359,-0.22289 0.36218,-0.4829 0.45503,-0.78007 h -1.94088 c -0.17644,0 -0.32503,-0.14859 -0.32503,-0.32504 v -0.65005 c 0,-0.17644 0.14859,-0.32504 0.32503,-0.32504 h 3.06458 c 0.17643,0 0.31574,0.13 0.32502,0.30645 z m 6.67705,-3.2503 c 0.17644,0 0.32502,0.1486 0.32502,0.32504 v 6.16628 c 0,0.17645 -0.14858,0.32502 -0.32502,0.32502 h -0.81723 c -0.10213,0 -0.19502,-0.0464 -0.26001,-0.12999 l -3.22246,-4.41114 v 4.21611 c 0,0.17645 -0.14858,0.32502 -0.32503,0.32502 h -0.69649 c -0.17644,0 -0.32503,-0.14857 -0.32503,-0.32502 v -6.16628 c 0,-0.17644 0.14859,-0.32504 0.32503,-0.32504 h 0.80793 c 0.10216,0 0.20432,0.0465 0.26003,0.13002 l 3.23173,4.39255 v -4.19753 c 0,-0.17644 0.13929,-0.32504 0.31575,-0.32504 z"
               id="path3731-0-3-3"
               inkscape:connector-curvature="0"
               style="fill:#7dd2ff;fill-opacity:1;stroke-width:0.29956681" />
          </g>
        </g>
      </g>
    </g>
  </g>
</svg>
