<?xml version="1.0" encoding="UTF-8" standalone="no"?>
<!-- Created with Inkscape (http://www.inkscape.org/) -->

<svg
   xmlns:dc="http://purl.org/dc/elements/1.1/"
   xmlns:cc="http://creativecommons.org/ns#"
   xmlns:rdf="http://www.w3.org/1999/02/22-rdf-syntax-ns#"
   xmlns:svg="http://www.w3.org/2000/svg"
   xmlns="http://www.w3.org/2000/svg"
   xmlns:sodipodi="http://sodipodi.sourceforge.net/DTD/sodipodi-0.dtd"
   xmlns:inkscape="http://www.inkscape.org/namespaces/inkscape"
   width="300"
   height="150"
   viewBox="0 0 79.374996 39.6875"
   version="1.1"
   id="svg3788"
   inkscape:version="0.92.1 r15371"
   sodipodi:docname="signhash-logo-inverse.svg">
  <defs
     id="defs3782" />
  <sodipodi:namedview
     id="base"
     pagecolor="#ffffff"
     bordercolor="#666666"
     borderopacity="1.0"
     inkscape:pageopacity="0.0"
     inkscape:pageshadow="2"
     inkscape:zoom="2.8"
     inkscape:cx="141.0427"
     inkscape:cy="101.71948"
     inkscape:document-units="mm"
     inkscape:current-layer="g5154"
     showgrid="false"
     units="px"
     inkscape:window-width="1920"
     inkscape:window-height="1145"
     inkscape:window-x="1920"
     inkscape:window-y="36"
     inkscape:window-maximized="0"
     inkscape:measure-start="3.57143,64.6429"
     inkscape:measure-end="317.857,64.6429"
     showguides="true"
     inkscape:guide-bbox="true" />
  <metadata
     id="metadata3785">
    <rdf:RDF>
      <cc:Work
         rdf:about="">
        <dc:format>image/svg+xml</dc:format>
        <dc:type
           rdf:resource="http://purl.org/dc/dcmitype/StillImage" />
        <dc:title />
      </cc:Work>
    </rdf:RDF>
  </metadata>
  <g
     inkscape:label="Layer 1"
     inkscape:groupmode="layer"
     id="layer1"
     transform="translate(0,-257.31251)">
    <g
       id="g3776"
       transform="translate(-44.979167,3.5907738)">
      <g
         id="g5186"
         transform="translate(-35.82526,-2.2146388)">
        <g
           id="g5154"
           transform="translate(0.04728432,0.57257998)">
          <path
             sodipodi:nodetypes="ssssssssscscscsssssscsccsccscssssssssssscsssssscccssssssssccsssccccsscccsscccssccscccsccccccscscccssccsscccccscssssccssssssssccsssssscccc"
             inkscape:connector-curvature="0"
             id="rect4390"
             transform="matrix(0.26458333,0,0,0.26458333,80.804427,255.93637)"
             d="m 57.572266,20.628906 c -10.975348,0 -19.810547,8.835139 -19.810547,19.810547 v 64.792967 c 0,10.97545 8.835199,19.81055 19.810547,19.81055 H 236.11444 c 10.97533,0 19.81055,-8.8351 19.81055,-19.81055 V 40.439453 c 0,-10.975408 -8.83522,-19.810547 -19.81055,-19.810547 z m 30.162109,13.597656 c 7.475717,-4.53e-4 13.974605,4.91495 13.974605,17.539063 v 7.460937 h 7.21485 c 4.83503,0 8.75487,4.102772 8.75586,9.166016 v 37.027342 c 0,5.06328 -3.92177,9.16602 -8.75586,9.16602 H 65.974609 c -4.835025,0 -8.753906,-4.10274 -8.753906,-9.16602 V 68.392578 c 0,-5.063244 3.919823,-9.166016 8.753906,-9.166016 h 7.78711 v -7.460937 c 0,-12.624113 6.497695,-17.538533 13.972656,-17.539063 z m 0,7.21875 c -4.284132,-0.07786 -7.664063,1.675664 -7.664063,10.320313 v 7.460937 h 14.744141 v -7.460937 c 0,-8.644649 -2.908538,-10.242643 -7.080078,-10.320313 z M 73.101562,67.873047 c -1.024066,0 -1.884765,0.860891 -1.884765,1.884765 v 5.613282 c 0,1.024176 0.860963,1.886718 1.884765,1.886718 h 4.09961 c 1.077997,0 1.884766,-0.862769 1.884766,-1.886718 v -5.613282 c 0,-1.024138 -0.806354,-1.884765 -1.884766,-1.884765 z m 25.173829,0 c -1.077997,0 -1.888672,0.860891 -1.888672,1.884765 V 83.933594 H 73.101562 c -1.024066,0 -1.884765,0.860891 -1.884765,1.884765 v 20.158201 c 0,1.02407 0.860963,1.88867 1.884765,1.88867 h 4.09961 c 1.077997,0 1.884766,-0.86483 1.884766,-1.88867 V 91.748047 h 17.300781 v 14.228513 c 1.13e-4,1.02407 0.810372,1.88867 1.888672,1.88867 h 4.095699 c 1.02403,0 1.88477,-0.86483 1.88477,-1.88867 V 69.757812 c 0,-1.024138 -0.86089,-1.884765 -1.88477,-1.884765 z m 41.071309,0.191406 h 5.09766 c 0.75904,0 1.46327,0.433677 1.73437,1.138672 l 15.18164,35.839845 c 0.16252,0.27099 0.26953,0.59638 0.26953,0.92187 0,1.03015 -0.81206,1.89649 -1.89648,1.89649 h -4.5 c -0.75904,0 -1.46526,-0.43368 -1.73633,-1.13867 l -3.95703,-9.324222 h -15.34375 l -3.9043,9.324222 c -0.27099,0.70488 -0.97533,1.13867 -1.73437,1.13867 h -4.5 c -0.65046,0 -1.247,-0.32517 -1.57227,-0.86719 -0.37946,-0.48782 -0.4352,-1.1922 -0.16406,-1.73437 l 15.29101,-36.056645 c 0.271,-0.704806 0.9753,-1.138672 1.73438,-1.138672 z m 40.88086,0 c 4.98818,0 8.9467,1.192601 11.82031,3.578125 2.65678,2.168769 4.1205,5.043612 4.28321,8.513672 0.0529,0.487861 -0.16294,1.030692 -0.48829,1.410156 -0.37935,0.325418 -0.86753,0.541016 -1.35547,0.541016 h -4.22851 c -0.92171,0 -1.73535,-0.70524 -1.84375,-1.626953 -0.16252,-1.409688 -0.81213,-3.360026 -4.39063,-4.335938 -1.08434,-0.325417 -2.49446,-0.488281 -4.12109,-0.488281 -1.62652,0 -2.98157,0.161513 -4.01172,0.541016 -1.03015,0.325417 -1.78937,0.704933 -2.27734,1.138672 -0.43363,0.379351 -0.7061,0.759169 -0.81446,1.138671 -0.16251,0.54206 -0.26953,1.139919 -0.26953,1.736329 0,0.108094 -0.001,0.431795 0.48633,0.919921 0.5421,0.487862 1.24821,0.977393 2.16992,1.302735 1.08435,0.487823 2.33047,0.866102 3.74024,1.191406 1.46385,0.379351 2.98229,0.75917 4.55469,1.138672 1.57232,0.379351 3.14398,0.814722 4.66211,1.302734 1.62655,0.542022 3.14604,1.245691 4.44726,2.113282 3.03632,1.951861 4.7168,4.826852 4.7168,8.296874 0,4.012158 -1.57317,7.102758 -4.60938,9.271488 -2.81934,1.9519 -6.72328,2.98047 -11.54883,2.98047 -5.47612,0 -9.75814,-1.19253 -12.74023,-3.57813 -2.76514,-2.22304 -4.33726,-5.368212 -4.7168,-9.326171 -0.0529,-0.54206 0.10656,-1.083313 0.48633,-1.462891 0.37935,-0.379351 0.86795,-0.595703 1.41016,-0.595703 h 4.22851 c 1.03019,0 1.84424,0.758425 1.89844,1.734375 0.1081,1.843427 0.9213,3.14368 2.65625,4.173828 1.62656,0.921712 3.95838,1.410152 6.83203,1.410152 8.2413,0 8.24219,-3.252451 8.24219,-4.445308 0,-0.867477 -0.32648,-1.410463 -1.03125,-1.898438 -1.03015,-0.704882 -2.3852,-1.301087 -4.01172,-1.789062 -1.78927,-0.54206 -3.7424,-1.029603 -5.80273,-1.517578 -2.22297,-0.487824 -4.33668,-1.139357 -6.23438,-1.898438 -2.06026,-0.867515 -3.84955,-1.951715 -5.20508,-3.361328 -1.57239,-1.572359 -2.38476,-3.686104 -2.38476,-6.234375 0,-3.524258 1.35542,-6.452814 4.0664,-8.675781 2.60255,-2.114457 6.39659,-3.199219 11.38477,-3.199219 z m 25.26758,0 h 4.0664 c 1.03019,0 1.62982,0.903406 1.89649,1.898438 v 14.097656 h 17.1875 V 69.962891 c 0,-1.030148 0.8136,-1.898438 1.84375,-1.898438 h 4.12109 c 1.03015,0 1.84375,0.86829 1.84375,1.898438 v 36.001949 c 0,1.03015 -0.8136,1.89649 -1.84375,1.89649 h -4.12109 c -1.03015,0 -2.10946,-0.9012 -1.84375,-1.89649 V 91.8125 h -17.1875 v 14.15234 c 0,1.03015 -0.8663,1.89649 -1.89649,1.89649 h -4.0664 c -1.03015,0 -1.89844,-0.86634 -1.89844,-1.89649 V 69.962891 c 0,-1.030148 0.86829,-1.898438 1.89844,-1.898438 z m -63.59961,11.007813 -4.5,10.789062 h 9 z"
             style="fill:#4d4d4d;fill-opacity:1;stroke:none;stroke-width:1.73864949" />
          <path
             sodipodi:nodetypes="csccscsscsccccccccscccssccccscccccccccccsscccccsscccccsscsccccssccccsssssssssccsccscscsccsccsccscscsccsssssccsssssccsssssssccsss"
             d="m 125.10806,268.90211 c 0.52932,0.33431 0.81721,0.8265 0.81721,1.42085 0,0.69647 -0.26931,1.2351 -0.79865,1.60658 -0.37145,0.2693 -0.86366,0.42717 -1.45799,0.49217 h -0.0371 c -0.0744,0 -0.15787,-0.0278 -0.21359,-0.0836 -0.0743,-0.065 -0.11144,-0.14859 -0.11144,-0.24148 v -0.66862 c 0,-0.16714 0.13001,-0.30646 0.28789,-0.32502 0.96581,-0.11141 0.96581,-0.5572 0.96581,-0.75222 0,-0.13929 -0.0465,-0.23216 -0.16717,-0.31574 -0.18572,-0.13001 -0.41789,-0.23217 -0.69649,-0.31574 -0.0465,-0.009 -0.0836,-0.0279 -0.12072,-0.0371 l -0.0279,-0.009 c -0.26931,-0.0743 -0.55719,-0.14859 -0.85436,-0.2136 -0.11144,-0.0186 -0.23216,-0.0557 -0.37146,-0.0928 -0.25074,-0.065 -0.4922,-0.14859 -0.70578,-0.23216 -0.35289,-0.14859 -0.65935,-0.34361 -0.9008,-0.58505 -0.26932,-0.26932 -0.40861,-0.63148 -0.40861,-1.07724 0,-0.61292 0.24145,-1.11438 0.70578,-1.49515 0.33431,-0.27859 0.78935,-0.44576 1.35584,-0.52004 0.0929,-0.009 0.18573,0.0185 0.26001,0.0836 0.065,0.065 0.10215,0.1486 0.10215,0.24146 v 0.66863 c 0,0.15788 -0.11143,0.29717 -0.2693,0.32503 -0.0929,0.009 -0.16716,0.0279 -0.23217,0.0465 -0.17645,0.065 -0.30645,0.13001 -0.39003,0.20432 -0.0743,0.065 -0.12072,0.13 -0.14858,0.19502 -0.0279,0.0928 -0.0465,0.19501 -0.0465,0.29717 0,0.0278 0,0.0743 0.0836,0.15786 0.0929,0.0928 0.22287,0.16716 0.38075,0.23215 0.11144,0.0465 0.25074,0.0929 0.39003,0.13932 0.0836,0.0185 0.16717,0.0464 0.25074,0.065 0.26003,0.065 0.52006,0.13002 0.78937,0.19501 0.0371,0.009 0.0743,0.0185 0.12072,0.0279 l 0.0557,0.0186 c 0.24146,0.065 0.44575,0.12073 0.63149,0.18574 0.2786,0.0928 0.53863,0.21357 0.7615,0.36217 z m -1.55087,-2.09877 c -0.14858,-0.0371 -0.25074,-0.16716 -0.25074,-0.32504 v -0.67791 c 0,-0.0928 0.0465,-0.18573 0.12073,-0.25074 0.065,-0.0557 0.16715,-0.0836 0.26002,-0.065 0.53863,0.0836 0.98438,0.26932 1.32798,0.5572 0.46434,0.38076 0.71507,0.87295 0.74293,1.46726 0.009,0.0929 -0.0279,0.17646 -0.0836,0.24148 -0.065,0.065 -0.14859,0.10213 -0.24145,0.10213 h -0.72436 c -0.15787,0 -0.29717,-0.12074 -0.31575,-0.28789 -0.0371,-0.23218 -0.13929,-0.57576 -0.76149,-0.75221 -0.0185,0 -0.0279,0 -0.0371,-0.009 z m -1.08652,4.26253 c 0.15786,0.0279 0.26001,0.16717 0.26001,0.31575 v 0.68722 c 0,0.0928 -0.0371,0.18571 -0.11142,0.25073 -0.0557,0.0464 -0.13001,0.0742 -0.2136,0.0742 h -0.0465 c -0.57577,-0.0836 -1.05867,-0.2786 -1.42085,-0.56648 -0.47361,-0.38074 -0.7522,-0.91936 -0.81722,-1.60657 -0.009,-0.0928 0.0185,-0.18574 0.0836,-0.25073 0.065,-0.0743 0.14858,-0.11142 0.24144,-0.11142 h 0.73365 c 0.17645,0 0.31574,0.1393 0.32503,0.30646 0.0186,0.31575 0.16715,0.5479 0.45504,0.71507 0.14858,0.0836 0.31574,0.13929 0.51076,0.18573 z m 5.55336,-5.60909 c 0.17645,0 0.32503,0.1486 0.32503,0.32504 v 6.16628 c 0,0.17645 -0.14858,0.32502 -0.32503,0.32502 h -0.69649 c -0.17644,0 -0.32503,-0.14857 -0.32503,-0.32502 v -6.16628 c 0,-0.17644 0.14859,-0.32504 0.32503,-0.32504 z m 8.33935,3.2503 v 0.0371 c 0.009,0.065 0.009,0.13001 0.009,0.19502 0,0.14858 -0.009,0.29717 -0.0279,0.47361 -0.0929,0.78008 -0.4086,1.44872 -0.92866,1.98734 -0.65005,0.67791 -1.49513,1.02152 -2.49808,1.02152 -1.00295,0 -1.84803,-0.34361 -2.49809,-1.02152 -0.63147,-0.65936 -0.9565,-1.48586 -0.9565,-2.46095 0,-0.97508 0.32503,-1.80159 0.95651,-2.46095 0.65006,-0.67791 1.49515,-1.02152 2.49809,-1.02152 1.00295,0 1.84802,0.34361 2.49808,1.02152 0.25073,0.26004 0.45505,0.55721 0.61292,0.88223 0.0279,0.0464 0.0465,0.11141 0.0465,0.17645 0,0.17644 -0.1393,0.31574 -0.32503,0.31574 v 0 h -0.78007 c -0.11143,0 -0.21359,-0.0556 -0.2693,-0.14858 -0.0744,-0.11141 -0.14858,-0.21359 -0.24145,-0.30646 -0.39004,-0.40861 -0.89151,-0.61291 -1.54157,-0.61291 -0.65006,0 -1.15154,0.2043 -1.54157,0.61291 -0.38074,0.4086 -0.56648,0.91008 -0.56648,1.54157 0,0.63149 0.18574,1.14225 0.56648,1.54158 0.39003,0.4086 0.89151,0.6129 1.54157,0.6129 0.65006,0 1.15153,-0.2043 1.54157,-0.6129 0.21359,-0.22289 0.36218,-0.4829 0.45503,-0.78007 h -1.94088 c -0.17644,0 -0.32503,-0.14859 -0.32503,-0.32504 v -0.65005 c 0,-0.17644 0.14859,-0.32504 0.32503,-0.32504 h 3.06458 c 0.17643,0 0.31574,0.13 0.32502,0.30645 z m 6.67705,-3.2503 c 0.17644,0 0.32502,0.1486 0.32502,0.32504 v 6.16628 c 0,0.17645 -0.14858,0.32502 -0.32502,0.32502 h -0.81723 c -0.10213,0 -0.19502,-0.0464 -0.26001,-0.12999 l -3.22246,-4.41114 v 4.21611 c 0,0.17645 -0.14858,0.32502 -0.32503,0.32502 h -0.69649 c -0.17644,0 -0.32503,-0.14857 -0.32503,-0.32502 v -6.16628 c 0,-0.17644 0.14859,-0.32504 0.32503,-0.32504 h 0.80793 c 0.10216,0 0.20432,0.0465 0.26003,0.13002 l 3.23173,4.39255 v -4.19753 c 0,-0.17644 0.13929,-0.32504 0.31575,-0.32504 z"
             id="path3731-0-3"
             inkscape:connector-curvature="0"
             style="fill:#ddff55;fill-opacity:1;stroke-width:0.29956681" />
        </g>
      </g>
    </g>
  </g>
</svg>
