<?xml version="1.0" encoding="UTF-8" standalone="no"?>
<!-- Created with Inkscape (http://www.inkscape.org/) -->

<svg
   xmlns:dc="http://purl.org/dc/elements/1.1/"
   xmlns:cc="http://creativecommons.org/ns#"
   xmlns:rdf="http://www.w3.org/1999/02/22-rdf-syntax-ns#"
   xmlns:svg="http://www.w3.org/2000/svg"
   xmlns="http://www.w3.org/2000/svg"
   xmlns:sodipodi="http://sodipodi.sourceforge.net/DTD/sodipodi-0.dtd"
   xmlns:inkscape="http://www.inkscape.org/namespaces/inkscape"
   width="100"
   height="100"
   viewBox="0 0 26.458333 26.458335"
   version="1.1"
   id="svg3755"
   inkscape:version="0.92.1 r15371"
   sodipodi:docname="signhash-logomark.svg">
  <defs
     id="defs3749" />
  <sodipodi:namedview
     id="base"
     pagecolor="#ffffff"
     bordercolor="#666666"
     borderopacity="1.0"
     inkscape:pageopacity="0.0"
     inkscape:pageshadow="2"
     inkscape:zoom="0.98994951"
     inkscape:cx="135.43116"
     inkscape:cy="-9.5872766"
     inkscape:document-units="mm"
     inkscape:current-layer="layer1"
     showgrid="false"
     units="px"
     inkscape:window-width="959"
     inkscape:window-height="1181"
     inkscape:window-x="1920"
     inkscape:window-y="0"
     inkscape:window-maximized="0"
     inkscape:measure-start="199.505,257.084"
     inkscape:measure-end="199.505,44.4467"
     showguides="true"
     inkscape:guide-bbox="true" />
  <metadata
     id="metadata3752">
    <rdf:RDF>
      <cc:Work
         rdf:about="">
        <dc:format>image/svg+xml</dc:format>
        <dc:type
           rdf:resource="http://purl.org/dc/dcmitype/StillImage" />
        <dc:title></dc:title>
      </cc:Work>
    </rdf:RDF>
  </metadata>
  <g
     inkscape:label="Layer 1"
     inkscape:groupmode="layer"
     id="layer1"
     transform="translate(0,-270.54165)">
    <path
       inkscape:connector-curvature="0"
       style="fill:#4d4d4d;fill-opacity:1;stroke:none;stroke-width:0.38798332"
       d="m 6.0105538,272.13132 c -2.4491797,0 -4.4208873,1.97171 -4.4208873,4.4209 v 14.43722 c 0,2.44918 1.9717076,4.42088 4.4208873,4.42088 H 20.447778 c 2.44918,0 4.420889,-1.9717 4.420889,-4.42088 v -14.43722 c 0,-2.44919 -1.971709,-4.4209 -4.420889,-4.4209 z m 7.2822642,2.67346 c 1.668217,-1.1e-4 3.653645,1.09703 3.62162,3.91393 v 1.66484 h 1.106928 c 1.078967,0 1.953345,0.91537 1.953558,2.04524 v 8.26284 c 0,1.12988 -0.874801,2.04525 -1.953558,2.04525 H 8.4369678 c -1.078967,0 -1.953559,-0.91537 -1.953559,-2.04525 v -8.26284 c 0,-1.12987 0.874809,-2.04524 1.953559,-2.04524 h 1.10102 v -1.66484 c 0,-2.81709 2.0867742,-3.91383 3.7548302,-3.91393 z m 0,1.61104 c -0.956009,-0.0179 -2.023906,0.37404 -1.994876,2.30289 v 1.66484 h 3.862448 v -1.66484 c 0,-1.92907 -0.936687,-2.28555 -1.867572,-2.30289 z m -3.3294712,5.89704 c -0.228525,0 -0.420569,0.19204 -0.420569,0.42056 v 1.25261 c 0,0.22852 0.192048,0.42134 0.420569,0.42134 h 0.9146402 c 0.24055,0 0.420565,-0.19282 0.420565,-0.42134 v -1.25261 c 0,-0.22852 -0.180015,-0.42056 -0.420565,-0.42056 z m 5.6174212,0 c -0.24055,0 -0.421138,0.19204 -0.421327,0.42056 v 3.16373 H 9.9633468 c -0.228525,0 -0.420569,0.19205 -0.420569,0.42058 v 4.49817 c 0,0.22853 0.192048,0.42133 0.420569,0.42133 h 0.9146402 c 0.24055,0 0.420754,-0.1928 0.420565,-0.42133 v -3.17509 h 3.860889 v 3.17509 c 4e-6,0.22853 0.180777,0.42133 0.421327,0.42133 h 0.913883 c 0.228523,0 0.420571,-0.1928 0.420571,-0.42133 v -8.08248 c 0,-0.22852 -0.192048,-0.42056 -0.420571,-0.42056 z"
       id="rect4390"
       inkscape:export-filename="/home/js/signhash-sign.png"
       inkscape:export-xdpi="1280"
       inkscape:export-ydpi="1280"
       sodipodi:nodetypes="ssssssssssscscsssssscsscsccscssssssssssscsssssscccssssss" />
  </g>
</svg>
