<?xml version="1.0" encoding="UTF-8" standalone="no"?>
<!-- Created with Inkscape (http://www.inkscape.org/) -->

<svg
   xmlns:dc="http://purl.org/dc/elements/1.1/"
   xmlns:cc="http://creativecommons.org/ns#"
   xmlns:rdf="http://www.w3.org/1999/02/22-rdf-syntax-ns#"
   xmlns:svg="http://www.w3.org/2000/svg"
   xmlns="http://www.w3.org/2000/svg"
   xmlns:sodipodi="http://sodipodi.sourceforge.net/DTD/sodipodi-0.dtd"
   xmlns:inkscape="http://www.inkscape.org/namespaces/inkscape"
   width="400"
   height="400"
   viewBox="0 0 105.83333 105.83334"
   version="1.1"
   id="svg3755"
   inkscape:version="0.92.1 r15371"
   sodipodi:docname="logotype.svg">
  <defs
     id="defs3749" />
  <sodipodi:namedview
     id="base"
     pagecolor="#ffffff"
     bordercolor="#666666"
     borderopacity="1.0"
     inkscape:pageopacity="0.0"
     inkscape:pageshadow="2"
     inkscape:zoom="1.979899"
     inkscape:cx="145.24538"
     inkscape:cy="219.23342"
     inkscape:document-units="mm"
     inkscape:current-layer="layer1"
     showgrid="false"
     units="px"
     inkscape:window-width="1920"
     inkscape:window-height="1145"
     inkscape:window-x="1920"
     inkscape:window-y="36"
     inkscape:window-maximized="0" />
  <metadata
     id="metadata3752">
    <rdf:RDF>
      <cc:Work
         rdf:about="">
        <dc:format>image/svg+xml</dc:format>
        <dc:type
           rdf:resource="http://purl.org/dc/dcmitype/StillImage" />
        <dc:title></dc:title>
      </cc:Work>
    </rdf:RDF>
  </metadata>
  <g
     inkscape:label="Layer 1"
     inkscape:groupmode="layer"
     id="layer1"
     transform="translate(0,-191.16665)">
    <path
       inkscape:connector-curvature="0"
       style="fill:#4d4d4d;fill-opacity:1;stroke:none;stroke-width:1.5519315"
       d="m 24.042248,197.52537 c -9.796707,0 -17.6835283,7.88684 -17.6835283,17.68357 v 57.74881 c 0,9.79673 7.8868213,17.68351 17.6835283,17.68351 h 57.748833 c 9.796707,0 17.683533,-7.88678 17.683533,-17.68351 v -57.74881 c 0,-9.79673 -7.886826,-17.68357 -17.683533,-17.68357 z m 29.129025,10.69381 c 6.672858,-4.1e-4 12.473049,4.38739 12.473049,15.65573 v 6.65936 h 6.441121 c 4.315861,0 7.813371,3.66146 7.814221,8.18094 v 33.0513 c 0,4.51954 -3.499198,8.181 -7.814221,8.181 h -38.33755 c -4.315862,0 -7.814228,-3.66146 -7.814228,-8.181 v -33.0513 c 0,-4.51948 3.499234,-8.18094 7.814228,-8.18094 h 6.95034 v -6.65936 c 0,-11.26834 5.800822,-15.65532 12.47304,-15.65573 z m 0,6.44415 c -3.824033,-0.0716 -6.841223,1.49531 -6.841223,9.21158 v 6.65936 h 13.161109 v -6.65936 c 0,-7.71627 -2.596353,-9.14219 -6.319886,-9.21158 z m -13.061069,23.58815 c -0.914102,0 -1.682274,0.76815 -1.682274,1.68224 v 5.01043 c 0,0.91409 0.76819,1.68535 1.682274,1.68535 h 3.658554 c 0.9622,0 1.68226,-0.77126 1.68226,-1.68535 v -5.01043 c 0,-0.91409 -0.72006,-1.68224 -1.68226,-1.68224 z m 22.469658,0 c -0.9622,0 -1.685307,0.76815 -1.685307,1.68224 v 12.65491 H 40.110204 c -0.914102,0 -1.682274,0.76821 -1.682274,1.6823 v 17.99269 c 0,0.91409 0.76819,1.68529 1.682274,1.68529 h 3.658554 c 0.9622,0 1.68226,-0.7712 1.68226,-1.68529 v -12.70036 h 15.443537 v 12.70036 c 1.7e-5,0.91409 0.723107,1.68529 1.685307,1.68529 h 3.655527 c 0.91409,0 1.68228,-0.7712 1.68228,-1.68529 v -32.3299 c 0,-0.91409 -0.76819,-1.68224 -1.68228,-1.68224 z"
       id="rect4390"
       inkscape:export-filename="/home/js/signhash-sign.png"
       inkscape:export-xdpi="1280"
       inkscape:export-ydpi="1280" />
  </g>
</svg>
